<svg xmlns="http://www.w3.org/2000/svg" viewBox="0 0 57.33 44.81"><defs><style>.cls-1,.cls-2{fill:none;stroke:#000;stroke-miterlimit:10;stroke-width:5px;}.cls-2{stroke-linecap:round;}</style></defs><g id="Calque_2" data-name="Calque 2"><g id="Layer_3" data-name="Layer 3"><path class="cls-1" d="M26.82,38,13.74,42.28a.53.53,0,0,1-.67-.34L2.53,10.05a.53.53,0,0,1,.33-.67L23.6,2.53a.52.52,0,0,1,.66.33l3.6,10.89"/><path class="cls-1" d="M31.16,37.81l12.43,4.47a.53.53,0,0,0,.67-.34L54.81,10.05a.53.53,0,0,0-.34-.67L33.74,2.53a.53.53,0,0,0-.67.33l-3.64,11"/><path class="cls-2" d="M28.63,11.74c5.9,7.49,11.09,26.42.24,26.42C16.68,38.16,22.11,19.56,28.63,11.74Z"/></g></g></svg>